%
M48
M72
T01C0.0276
T02C0.0320
T03C0.0400
%
T01
X16800Y12950
X16800Y13889
X16800Y14850
T02
X14100Y14600
X14100Y13600
X14100Y12600
X14100Y11600
X14100Y10600
X14100Y9600
X14100Y8600
X14100Y7600
X11100Y7600
X11100Y8600
X11100Y9600
X11100Y10600
X11100Y11600
X11100Y12600
X11100Y13600
X11100Y14600
X11100Y15600
X14100Y15600
T03
X6100Y4100
X6100Y5100
X7100Y5100
X7100Y4100
X8100Y4100
X8100Y5100
X9100Y5100
X9100Y4100
X10100Y4100
X10100Y5100
X4600Y6600
X4600Y7600
X4600Y8600
X4600Y9600
X4600Y10600
X4600Y11600
X4600Y12600
X4600Y13600
X4600Y14600
X4600Y15600
X3600Y15600
X3600Y14600
X3600Y13600
X3600Y12600
X3600Y11600
X3600Y10600
X3600Y9600
X3600Y8600
X3600Y7600
X3600Y6600
X8100Y11600
X8100Y12600
X8100Y13600
X9100Y13600
X9100Y12600
X9100Y11600
X7600Y17100
X6600Y17100
X6600Y18100
X7600Y18100
M30
