G75*
%MOIN*%
%OFA0B0*%
%FSLAX24Y24*%
%IPPOS*%
%LPD*%
%AMOC8*
5,1,8,0,0,1.08239X$1,22.5*
%
%ADD10OC8,0.0880*%
%ADD11C,0.0800*%
%ADD12C,0.0756*%
D10*
X006100Y004100D03*
X006100Y005100D03*
X007100Y005100D03*
X007100Y004100D03*
X008100Y004100D03*
X008100Y005100D03*
X009100Y005100D03*
X009100Y004100D03*
X010100Y004100D03*
X010100Y005100D03*
X004600Y006600D03*
X004600Y007600D03*
X004600Y008600D03*
X004600Y009600D03*
X004600Y010600D03*
X004600Y011600D03*
X004600Y012600D03*
X004600Y013600D03*
X004600Y014600D03*
X004600Y015600D03*
X003600Y015600D03*
X003600Y014600D03*
X003600Y013600D03*
X003600Y012600D03*
X003600Y011600D03*
X003600Y010600D03*
X003600Y009600D03*
X003600Y008600D03*
X003600Y007600D03*
X003600Y006600D03*
X008100Y011600D03*
X008100Y012600D03*
X008100Y013600D03*
X009100Y013600D03*
X009100Y012600D03*
X009100Y011600D03*
X007600Y017100D03*
X006600Y017100D03*
X006600Y018100D03*
X007600Y018100D03*
D11*
X010740Y015600D02*
X011460Y015600D01*
X011460Y014600D02*
X010740Y014600D01*
X010740Y013600D02*
X011460Y013600D01*
X011460Y012600D02*
X010740Y012600D01*
X010740Y011600D02*
X011460Y011600D01*
X011460Y010600D02*
X010740Y010600D01*
X010740Y009600D02*
X011460Y009600D01*
X011460Y008600D02*
X010740Y008600D01*
X010740Y007600D02*
X011460Y007600D01*
X013740Y007600D02*
X014460Y007600D01*
X014460Y008600D02*
X013740Y008600D01*
X013740Y009600D02*
X014460Y009600D01*
X014460Y010600D02*
X013740Y010600D01*
X013740Y011600D02*
X014460Y011600D01*
X014460Y012600D02*
X013740Y012600D01*
X013740Y013600D02*
X014460Y013600D01*
X014460Y014600D02*
X013740Y014600D01*
X013740Y015600D02*
X014460Y015600D01*
D12*
X016800Y014850D03*
X016800Y013889D03*
X016800Y012950D03*
M02*
