G75*
%MOIN*%
%OFA0B0*%
%FSLAX24Y24*%
%IPPOS*%
%LPD*%
%AMOC8*
5,1,8,0,0,1.08239X$1,22.5*
%
%ADD10C,0.0000*%
%ADD11C,0.0060*%
%ADD12C,0.0050*%
%ADD13C,0.0160*%
D10*
X000100Y000100D02*
X000100Y021096D01*
X020470Y021096D01*
X020470Y000100D01*
X000100Y000100D01*
D11*
X005600Y003850D02*
X005600Y005350D01*
X005850Y005600D01*
X006350Y005600D01*
X006600Y005350D01*
X006600Y003850D01*
X006350Y003600D01*
X005850Y003600D01*
X005600Y003850D01*
X006600Y003850D02*
X006850Y003600D01*
X007350Y003600D01*
X007600Y003850D01*
X007600Y005350D01*
X007350Y005600D01*
X006850Y005600D01*
X006600Y005350D01*
X007600Y005350D02*
X007850Y005600D01*
X008350Y005600D01*
X008600Y005350D01*
X008600Y003850D01*
X008350Y003600D01*
X007850Y003600D01*
X007600Y003850D01*
X008600Y003850D02*
X008850Y003600D01*
X009350Y003600D01*
X009600Y003850D01*
X009600Y005350D01*
X009350Y005600D01*
X008850Y005600D01*
X008600Y005350D01*
X009600Y005350D02*
X009850Y005600D01*
X010350Y005600D01*
X010600Y005350D01*
X010600Y003850D01*
X010350Y003600D01*
X009850Y003600D01*
X009600Y003850D01*
X010600Y007100D02*
X011600Y007100D01*
X011600Y016100D01*
X012200Y016100D01*
X012202Y016061D01*
X012208Y016022D01*
X012217Y015984D01*
X012230Y015947D01*
X012247Y015911D01*
X012267Y015878D01*
X012291Y015846D01*
X012317Y015817D01*
X012346Y015791D01*
X012378Y015767D01*
X012411Y015747D01*
X012447Y015730D01*
X012484Y015717D01*
X012522Y015708D01*
X012561Y015702D01*
X012600Y015700D01*
X012639Y015702D01*
X012678Y015708D01*
X012716Y015717D01*
X012753Y015730D01*
X012789Y015747D01*
X012822Y015767D01*
X012854Y015791D01*
X012883Y015817D01*
X012909Y015846D01*
X012933Y015878D01*
X012953Y015911D01*
X012970Y015947D01*
X012983Y015984D01*
X012992Y016022D01*
X012998Y016061D01*
X013000Y016100D01*
X013600Y016100D01*
X013600Y007100D01*
X011600Y007100D01*
X010600Y007100D02*
X010600Y016100D01*
X011600Y016100D01*
X013600Y016100D02*
X014600Y016100D01*
X014600Y007100D01*
X013600Y007100D01*
X009600Y011350D02*
X009350Y011100D01*
X007850Y011100D01*
X007600Y011350D01*
X007600Y011850D01*
X007850Y012100D01*
X009350Y012100D01*
X009600Y011850D01*
X009600Y011350D01*
X009350Y012100D02*
X009600Y012350D01*
X009600Y012850D01*
X009350Y013100D01*
X007850Y013100D01*
X007600Y012850D01*
X007600Y012350D01*
X007850Y012100D01*
X007850Y013100D02*
X007600Y013350D01*
X007600Y013850D01*
X007850Y014100D01*
X009350Y014100D01*
X009600Y013850D01*
X009600Y013350D01*
X009350Y013100D01*
X007850Y016600D02*
X007350Y016600D01*
X007100Y016850D01*
X007100Y018350D01*
X006850Y018600D01*
X006350Y018600D01*
X006100Y018350D01*
X006100Y016850D01*
X006350Y016600D01*
X006850Y016600D01*
X007100Y016850D01*
X007850Y016600D02*
X008100Y016850D01*
X008100Y018350D01*
X007850Y018600D01*
X007350Y018600D01*
X007100Y018350D01*
X004850Y016100D02*
X003350Y016100D01*
X003100Y015850D01*
X003100Y015350D01*
X003350Y015100D01*
X004850Y015100D01*
X005100Y015350D01*
X005100Y015850D01*
X004850Y016100D01*
X004850Y015100D02*
X005100Y014850D01*
X005100Y014350D01*
X004850Y014100D01*
X003350Y014100D01*
X003100Y014350D01*
X003100Y014850D01*
X003350Y015100D01*
X003350Y014100D02*
X003100Y013850D01*
X003100Y013350D01*
X003350Y013100D01*
X004850Y013100D01*
X005100Y012850D01*
X005100Y012350D01*
X004850Y012100D01*
X003350Y012100D01*
X003100Y012350D01*
X003100Y012850D01*
X003350Y013100D01*
X003350Y012100D02*
X003100Y011850D01*
X003100Y011350D01*
X003350Y011100D01*
X004850Y011100D01*
X005100Y011350D01*
X005100Y011850D01*
X004850Y012100D01*
X004850Y013100D02*
X005100Y013350D01*
X005100Y013850D01*
X004850Y014100D01*
X004850Y011100D02*
X005100Y010850D01*
X005100Y010350D01*
X004850Y010100D01*
X003350Y010100D01*
X003100Y010350D01*
X003100Y010850D01*
X003350Y011100D01*
X003350Y010100D02*
X003100Y009850D01*
X003100Y009350D01*
X003350Y009100D01*
X004850Y009100D01*
X005100Y009350D01*
X005100Y009850D01*
X004850Y010100D01*
X004850Y009100D02*
X005100Y008850D01*
X005100Y008350D01*
X004850Y008100D01*
X003350Y008100D01*
X003100Y008350D01*
X003100Y008850D01*
X003350Y009100D01*
X003350Y008100D02*
X003100Y007850D01*
X003100Y007350D01*
X003350Y007100D01*
X004850Y007100D01*
X005100Y007350D01*
X005100Y007850D01*
X004850Y008100D01*
X004850Y007100D02*
X005100Y006850D01*
X005100Y006350D01*
X004850Y006100D01*
X003350Y006100D01*
X003100Y006350D01*
X003100Y006850D01*
X003350Y007100D01*
X016100Y012750D02*
X016100Y015050D01*
X016102Y015101D01*
X016107Y015152D01*
X016117Y015202D01*
X016130Y015252D01*
X016146Y015300D01*
X016166Y015347D01*
X016190Y015393D01*
X016216Y015436D01*
X016246Y015478D01*
X016279Y015517D01*
X016314Y015554D01*
X016352Y015588D01*
X016393Y015619D01*
X016435Y015648D01*
X016480Y015673D01*
X016526Y015694D01*
X016574Y015713D01*
X016623Y015727D01*
X016673Y015738D01*
X016723Y015746D01*
X016774Y015750D01*
X016826Y015750D01*
X016877Y015746D01*
X016927Y015738D01*
X016977Y015727D01*
X017026Y015713D01*
X017074Y015694D01*
X017120Y015673D01*
X017165Y015648D01*
X017207Y015619D01*
X017248Y015588D01*
X017286Y015554D01*
X017321Y015517D01*
X017354Y015478D01*
X017384Y015436D01*
X017410Y015393D01*
X017434Y015347D01*
X017454Y015300D01*
X017470Y015252D01*
X017483Y015202D01*
X017493Y015152D01*
X017498Y015101D01*
X017500Y015050D01*
X017500Y012750D01*
X017498Y012699D01*
X017493Y012648D01*
X017483Y012598D01*
X017470Y012548D01*
X017454Y012500D01*
X017434Y012453D01*
X017410Y012407D01*
X017384Y012364D01*
X017354Y012322D01*
X017321Y012283D01*
X017286Y012246D01*
X017248Y012212D01*
X017207Y012181D01*
X017165Y012152D01*
X017120Y012127D01*
X017074Y012106D01*
X017026Y012087D01*
X016977Y012073D01*
X016927Y012062D01*
X016877Y012054D01*
X016826Y012050D01*
X016774Y012050D01*
X016723Y012054D01*
X016673Y012062D01*
X016623Y012073D01*
X016574Y012087D01*
X016526Y012106D01*
X016480Y012127D01*
X016435Y012152D01*
X016393Y012181D01*
X016352Y012212D01*
X016314Y012246D01*
X016279Y012283D01*
X016246Y012322D01*
X016216Y012364D01*
X016190Y012407D01*
X016166Y012453D01*
X016146Y012500D01*
X016130Y012548D01*
X016117Y012598D01*
X016107Y012648D01*
X016102Y012699D01*
X016100Y012750D01*
D12*
X015625Y012846D02*
X015625Y013146D01*
X015625Y012996D02*
X015175Y012996D01*
X015325Y012846D01*
X015175Y012686D02*
X015175Y012385D01*
X015625Y012385D01*
X015625Y012225D02*
X015475Y012075D01*
X015625Y012000D02*
X015550Y011925D01*
X015250Y011925D01*
X015175Y012000D01*
X015175Y012150D01*
X015250Y012225D01*
X015550Y012225D01*
X015625Y012150D01*
X015625Y012000D01*
X015400Y012385D02*
X015400Y012536D01*
X013969Y016225D02*
X013819Y016225D01*
X013744Y016300D01*
X013744Y016375D01*
X013819Y016450D01*
X013969Y016450D01*
X014045Y016375D01*
X014045Y016300D01*
X013969Y016225D01*
X013969Y016450D02*
X014045Y016525D01*
X014045Y016600D01*
X013969Y016675D01*
X013819Y016675D01*
X013744Y016600D01*
X013744Y016525D01*
X013819Y016450D01*
X013584Y016375D02*
X013584Y016300D01*
X013509Y016225D01*
X013359Y016225D01*
X013284Y016300D01*
X013284Y016375D01*
X013359Y016450D01*
X013509Y016450D01*
X013584Y016375D01*
X013509Y016450D02*
X013584Y016525D01*
X013584Y016600D01*
X013509Y016675D01*
X013359Y016675D01*
X013284Y016600D01*
X013284Y016525D01*
X013359Y016450D01*
X013124Y016675D02*
X012823Y016675D01*
X012823Y016225D01*
X012663Y016300D02*
X012663Y016375D01*
X012588Y016450D01*
X012363Y016450D01*
X012363Y016300D01*
X012438Y016225D01*
X012588Y016225D01*
X012663Y016300D01*
X012823Y016450D02*
X012974Y016450D01*
X012663Y016675D02*
X012513Y016600D01*
X012363Y016450D01*
X012203Y016225D02*
X011903Y016225D01*
X012053Y016225D02*
X012053Y016675D01*
X011903Y016525D01*
X011743Y016600D02*
X011668Y016675D01*
X011517Y016675D01*
X011442Y016600D01*
X011442Y016300D01*
X011517Y016225D01*
X011668Y016225D01*
X011743Y016300D01*
X011286Y016225D02*
X011135Y016225D01*
X011210Y016225D02*
X011210Y016675D01*
X011135Y016675D02*
X011286Y016675D01*
X010975Y016600D02*
X010975Y016450D01*
X010900Y016375D01*
X010675Y016375D01*
X010675Y016225D02*
X010675Y016675D01*
X010900Y016675D01*
X010975Y016600D01*
X010325Y013965D02*
X010325Y013665D01*
X010325Y013815D02*
X009875Y013815D01*
X010025Y013665D01*
X010400Y013504D02*
X010400Y013204D01*
X010250Y013044D02*
X010325Y012969D01*
X010325Y012819D01*
X010250Y012744D01*
X010250Y012584D02*
X010325Y012509D01*
X010325Y012358D01*
X010250Y012283D01*
X010100Y012358D02*
X010100Y012509D01*
X010175Y012584D01*
X010250Y012584D01*
X010100Y012358D02*
X010025Y012283D01*
X009950Y012283D01*
X009875Y012358D01*
X009875Y012509D01*
X009950Y012584D01*
X009950Y012744D02*
X010025Y012744D01*
X010100Y012819D01*
X010100Y012969D01*
X010175Y013044D01*
X010250Y013044D01*
X009950Y013044D02*
X009875Y012969D01*
X009875Y012819D01*
X009950Y012744D01*
X007965Y015875D02*
X007965Y016325D01*
X007665Y016325D02*
X007965Y015875D01*
X007665Y015875D02*
X007665Y016325D01*
X007504Y016250D02*
X007429Y016325D01*
X007279Y016325D01*
X007204Y016250D01*
X007204Y015950D01*
X007279Y015875D01*
X007429Y015875D01*
X007504Y015950D01*
X007504Y016250D01*
X007047Y016325D02*
X006897Y016325D01*
X006972Y016325D02*
X006972Y015875D01*
X006897Y015875D02*
X007047Y015875D01*
X006587Y015875D02*
X006587Y016325D01*
X006437Y016325D02*
X006737Y016325D01*
X006277Y016250D02*
X006277Y016100D01*
X006202Y016025D01*
X005976Y016025D01*
X005976Y015875D02*
X005976Y016325D01*
X006202Y016325D01*
X006277Y016250D01*
X005816Y016250D02*
X005816Y015950D01*
X005741Y015875D01*
X005591Y015875D01*
X005516Y015950D01*
X005516Y016250D01*
X005591Y016325D01*
X005741Y016325D01*
X005816Y016250D01*
X002750Y009648D02*
X002825Y009573D01*
X002825Y009348D01*
X002375Y009348D01*
X002375Y009573D01*
X002450Y009648D01*
X002525Y009648D01*
X002600Y009573D01*
X002600Y009348D01*
X002675Y009188D02*
X002750Y009188D01*
X002825Y009113D01*
X002825Y008887D01*
X002375Y008887D01*
X002375Y009113D01*
X002450Y009188D01*
X002525Y009188D01*
X002600Y009113D01*
X002600Y008887D01*
X002675Y008727D02*
X002600Y008652D01*
X002600Y008427D01*
X002825Y008427D02*
X002825Y008652D01*
X002750Y008727D01*
X002675Y008727D01*
X002600Y008652D02*
X002525Y008727D01*
X002450Y008727D01*
X002375Y008652D01*
X002375Y008427D01*
X002825Y008427D01*
X002900Y008267D02*
X002900Y007967D01*
X002825Y007806D02*
X002375Y007806D01*
X002525Y007656D01*
X002375Y007506D01*
X002825Y007506D01*
X002750Y007346D02*
X002450Y007346D01*
X002375Y007271D01*
X002375Y007121D01*
X002450Y007046D01*
X002750Y007046D01*
X002825Y007121D01*
X002825Y007271D01*
X002750Y007346D01*
X002825Y006886D02*
X002675Y006736D01*
X002675Y006811D02*
X002675Y006585D01*
X002825Y006585D02*
X002375Y006585D01*
X002375Y006811D01*
X002450Y006886D01*
X002600Y006886D01*
X002675Y006811D01*
X002375Y006425D02*
X002375Y006125D01*
X002825Y006125D01*
X002600Y006125D02*
X002600Y006275D01*
X002600Y009113D02*
X002675Y009188D01*
X002600Y009573D02*
X002675Y009648D01*
X002750Y009648D01*
X004868Y003325D02*
X004793Y003250D01*
X004793Y002950D01*
X004868Y002875D01*
X005019Y002875D01*
X005094Y002950D01*
X005094Y003250D01*
X005019Y003325D01*
X004868Y003325D01*
X005254Y003325D02*
X005254Y002950D01*
X005329Y002875D01*
X005479Y002875D01*
X005554Y002950D01*
X005554Y003325D01*
X005714Y003325D02*
X006014Y003325D01*
X005864Y003325D02*
X005864Y002875D01*
X006175Y002800D02*
X006475Y002800D01*
X006635Y002875D02*
X006935Y002875D01*
X007095Y002875D02*
X007245Y002875D01*
X007170Y002875D02*
X007170Y003325D01*
X007095Y003325D02*
X007245Y003325D01*
X007402Y003325D02*
X007702Y002875D01*
X007702Y003325D01*
X007863Y003325D02*
X007863Y002875D01*
X008163Y002875D01*
X008013Y003100D02*
X007863Y003100D01*
X007863Y003325D02*
X008163Y003325D01*
X008323Y003325D02*
X008623Y003325D01*
X008473Y003325D02*
X008473Y002875D01*
X008783Y002875D02*
X008783Y003325D01*
X009009Y003325D01*
X009084Y003250D01*
X009084Y003100D01*
X009009Y003025D01*
X008783Y003025D01*
X008934Y003025D02*
X009084Y002875D01*
X009244Y002875D02*
X009244Y003175D01*
X009394Y003325D01*
X009544Y003175D01*
X009544Y002875D01*
X009704Y002950D02*
X009779Y002875D01*
X009929Y002875D01*
X010004Y002950D01*
X010165Y002875D02*
X010465Y002875D01*
X010315Y003100D02*
X010165Y003100D01*
X010004Y003250D02*
X009929Y003325D01*
X009779Y003325D01*
X009704Y003250D01*
X009704Y002950D01*
X009544Y003100D02*
X009244Y003100D01*
X010165Y003325D02*
X010165Y002875D01*
X010165Y003325D02*
X010465Y003325D01*
X007402Y003325D02*
X007402Y002875D01*
X006635Y002875D02*
X006635Y003325D01*
D13*
X015900Y012750D02*
X015900Y015050D01*
X015902Y015109D01*
X015908Y015167D01*
X015917Y015226D01*
X015931Y015283D01*
X015948Y015339D01*
X015969Y015394D01*
X015993Y015448D01*
X016021Y015500D01*
X016052Y015550D01*
X016086Y015598D01*
X016123Y015643D01*
X016164Y015686D01*
X016207Y015727D01*
X016252Y015764D01*
X016300Y015798D01*
X016350Y015829D01*
X016402Y015857D01*
X016456Y015881D01*
X016511Y015902D01*
X016567Y015919D01*
X016624Y015933D01*
X016683Y015942D01*
X016741Y015948D01*
X016800Y015950D01*
X016859Y015948D01*
X016917Y015942D01*
X016976Y015933D01*
X017033Y015919D01*
X017089Y015902D01*
X017144Y015881D01*
X017198Y015857D01*
X017250Y015829D01*
X017300Y015798D01*
X017348Y015764D01*
X017393Y015727D01*
X017436Y015686D01*
X017477Y015643D01*
X017514Y015598D01*
X017548Y015550D01*
X017579Y015500D01*
X017607Y015448D01*
X017631Y015394D01*
X017652Y015339D01*
X017669Y015283D01*
X017683Y015226D01*
X017692Y015167D01*
X017698Y015109D01*
X017700Y015050D01*
X017700Y012750D01*
X017698Y012691D01*
X017692Y012633D01*
X017683Y012574D01*
X017669Y012517D01*
X017652Y012461D01*
X017631Y012406D01*
X017607Y012352D01*
X017579Y012300D01*
X017548Y012250D01*
X017514Y012202D01*
X017477Y012157D01*
X017436Y012114D01*
X017393Y012073D01*
X017348Y012036D01*
X017300Y012002D01*
X017250Y011971D01*
X017198Y011943D01*
X017144Y011919D01*
X017089Y011898D01*
X017033Y011881D01*
X016976Y011867D01*
X016917Y011858D01*
X016859Y011852D01*
X016800Y011850D01*
X016741Y011852D01*
X016683Y011858D01*
X016624Y011867D01*
X016567Y011881D01*
X016511Y011898D01*
X016456Y011919D01*
X016402Y011943D01*
X016350Y011971D01*
X016300Y012002D01*
X016252Y012036D01*
X016207Y012073D01*
X016164Y012114D01*
X016123Y012157D01*
X016086Y012202D01*
X016052Y012250D01*
X016021Y012300D01*
X015993Y012352D01*
X015969Y012406D01*
X015948Y012461D01*
X015931Y012517D01*
X015917Y012574D01*
X015908Y012633D01*
X015902Y012691D01*
X015900Y012750D01*
M02*
