G75*
%MOIN*%
%OFA0B0*%
%FSLAX24Y24*%
%IPPOS*%
%LPD*%
%AMOC8*
5,1,8,0,0,1.08239X$1,22.5*
%
%ADD10C,0.0000*%
%ADD11C,0.0060*%
%ADD12C,0.0050*%
%ADD13C,0.0160*%
D10*
X000100Y000100D02*
X000100Y021096D01*
X020470Y021096D01*
X020470Y000100D01*
X000100Y000100D01*
D11*
X005600Y003850D02*
X005600Y005350D01*
X005850Y005600D01*
X006350Y005600D01*
X006600Y005350D01*
X006600Y003850D01*
X006350Y003600D01*
X005850Y003600D01*
X005600Y003850D01*
X006600Y003850D02*
X006850Y003600D01*
X007350Y003600D01*
X007600Y003850D01*
X007600Y005350D01*
X007350Y005600D01*
X006850Y005600D01*
X006600Y005350D01*
X007600Y005350D02*
X007850Y005600D01*
X008350Y005600D01*
X008600Y005350D01*
X008600Y003850D01*
X008350Y003600D01*
X007850Y003600D01*
X007600Y003850D01*
X008600Y003850D02*
X008850Y003600D01*
X009350Y003600D01*
X009600Y003850D01*
X009600Y005350D01*
X009350Y005600D01*
X008850Y005600D01*
X008600Y005350D01*
X009600Y005350D02*
X009850Y005600D01*
X010350Y005600D01*
X010600Y005350D01*
X010600Y003850D01*
X010350Y003600D01*
X009850Y003600D01*
X009600Y003850D01*
X010600Y007100D02*
X011600Y007100D01*
X011600Y016100D01*
X012200Y016100D01*
X012202Y016061D01*
X012208Y016022D01*
X012217Y015984D01*
X012230Y015947D01*
X012247Y015911D01*
X012267Y015878D01*
X012291Y015846D01*
X012317Y015817D01*
X012346Y015791D01*
X012378Y015767D01*
X012411Y015747D01*
X012447Y015730D01*
X012484Y015717D01*
X012522Y015708D01*
X012561Y015702D01*
X012600Y015700D01*
X012639Y015702D01*
X012678Y015708D01*
X012716Y015717D01*
X012753Y015730D01*
X012789Y015747D01*
X012822Y015767D01*
X012854Y015791D01*
X012883Y015817D01*
X012909Y015846D01*
X012933Y015878D01*
X012953Y015911D01*
X012970Y015947D01*
X012983Y015984D01*
X012992Y016022D01*
X012998Y016061D01*
X013000Y016100D01*
X013600Y016100D01*
X013600Y007100D01*
X011600Y007100D01*
X010600Y007100D02*
X010600Y016100D01*
X011600Y016100D01*
X013600Y016100D02*
X014600Y016100D01*
X014600Y007100D01*
X013600Y007100D01*
X016400Y010950D02*
X016400Y013250D01*
X016402Y013301D01*
X016407Y013352D01*
X016417Y013402D01*
X016430Y013452D01*
X016446Y013500D01*
X016466Y013547D01*
X016490Y013593D01*
X016516Y013636D01*
X016546Y013678D01*
X016579Y013717D01*
X016614Y013754D01*
X016652Y013788D01*
X016693Y013819D01*
X016735Y013848D01*
X016780Y013873D01*
X016826Y013894D01*
X016874Y013913D01*
X016923Y013927D01*
X016973Y013938D01*
X017023Y013946D01*
X017074Y013950D01*
X017126Y013950D01*
X017177Y013946D01*
X017227Y013938D01*
X017277Y013927D01*
X017326Y013913D01*
X017374Y013894D01*
X017420Y013873D01*
X017465Y013848D01*
X017507Y013819D01*
X017548Y013788D01*
X017586Y013754D01*
X017621Y013717D01*
X017654Y013678D01*
X017684Y013636D01*
X017710Y013593D01*
X017734Y013547D01*
X017754Y013500D01*
X017770Y013452D01*
X017783Y013402D01*
X017793Y013352D01*
X017798Y013301D01*
X017800Y013250D01*
X017800Y010950D01*
X017798Y010899D01*
X017793Y010848D01*
X017783Y010798D01*
X017770Y010748D01*
X017754Y010700D01*
X017734Y010653D01*
X017710Y010607D01*
X017684Y010564D01*
X017654Y010522D01*
X017621Y010483D01*
X017586Y010446D01*
X017548Y010412D01*
X017507Y010381D01*
X017465Y010352D01*
X017420Y010327D01*
X017374Y010306D01*
X017326Y010287D01*
X017277Y010273D01*
X017227Y010262D01*
X017177Y010254D01*
X017126Y010250D01*
X017074Y010250D01*
X017023Y010254D01*
X016973Y010262D01*
X016923Y010273D01*
X016874Y010287D01*
X016826Y010306D01*
X016780Y010327D01*
X016735Y010352D01*
X016693Y010381D01*
X016652Y010412D01*
X016614Y010446D01*
X016579Y010483D01*
X016546Y010522D01*
X016516Y010564D01*
X016490Y010607D01*
X016466Y010653D01*
X016446Y010700D01*
X016430Y010748D01*
X016417Y010798D01*
X016407Y010848D01*
X016402Y010899D01*
X016400Y010950D01*
X009600Y011350D02*
X009350Y011100D01*
X007850Y011100D01*
X007600Y011350D01*
X007600Y011850D01*
X007850Y012100D01*
X009350Y012100D01*
X009600Y011850D01*
X009600Y011350D01*
X009350Y012100D02*
X009600Y012350D01*
X009600Y012850D01*
X009350Y013100D01*
X007850Y013100D01*
X007600Y012850D01*
X007600Y012350D01*
X007850Y012100D01*
X007850Y013100D02*
X007600Y013350D01*
X007600Y013850D01*
X007850Y014100D01*
X009350Y014100D01*
X009600Y013850D01*
X009600Y013350D01*
X009350Y013100D01*
X007850Y016600D02*
X007350Y016600D01*
X007100Y016850D01*
X007100Y018350D01*
X006850Y018600D01*
X006350Y018600D01*
X006100Y018350D01*
X006100Y016850D01*
X006350Y016600D01*
X006850Y016600D01*
X007100Y016850D01*
X007850Y016600D02*
X008100Y016850D01*
X008100Y018350D01*
X007850Y018600D01*
X007350Y018600D01*
X007100Y018350D01*
X004850Y016100D02*
X003350Y016100D01*
X003100Y015850D01*
X003100Y015350D01*
X003350Y015100D01*
X004850Y015100D01*
X005100Y015350D01*
X005100Y015850D01*
X004850Y016100D01*
X004850Y015100D02*
X005100Y014850D01*
X005100Y014350D01*
X004850Y014100D01*
X003350Y014100D01*
X003100Y014350D01*
X003100Y014850D01*
X003350Y015100D01*
X003350Y014100D02*
X003100Y013850D01*
X003100Y013350D01*
X003350Y013100D01*
X004850Y013100D01*
X005100Y012850D01*
X005100Y012350D01*
X004850Y012100D01*
X003350Y012100D01*
X003100Y012350D01*
X003100Y012850D01*
X003350Y013100D01*
X003350Y012100D02*
X003100Y011850D01*
X003100Y011350D01*
X003350Y011100D01*
X004850Y011100D01*
X005100Y011350D01*
X005100Y011850D01*
X004850Y012100D01*
X004850Y013100D02*
X005100Y013350D01*
X005100Y013850D01*
X004850Y014100D01*
X004850Y011100D02*
X005100Y010850D01*
X005100Y010350D01*
X004850Y010100D01*
X003350Y010100D01*
X003100Y010350D01*
X003100Y010850D01*
X003350Y011100D01*
X003350Y010100D02*
X003100Y009850D01*
X003100Y009350D01*
X003350Y009100D01*
X004850Y009100D01*
X005100Y009350D01*
X005100Y009850D01*
X004850Y010100D01*
X004850Y009100D02*
X005100Y008850D01*
X005100Y008350D01*
X004850Y008100D01*
X003350Y008100D01*
X003100Y008350D01*
X003100Y008850D01*
X003350Y009100D01*
X003350Y008100D02*
X003100Y007850D01*
X003100Y007350D01*
X003350Y007100D01*
X004850Y007100D01*
X005100Y007350D01*
X005100Y007850D01*
X004850Y008100D01*
X004850Y007100D02*
X005100Y006850D01*
X005100Y006350D01*
X004850Y006100D01*
X003350Y006100D01*
X003100Y006350D01*
X003100Y006850D01*
X003350Y007100D01*
D12*
X002825Y007121D02*
X002825Y007271D01*
X002750Y007346D01*
X002450Y007346D01*
X002375Y007271D01*
X002375Y007121D01*
X002450Y007046D01*
X002750Y007046D01*
X002825Y007121D01*
X002825Y006886D02*
X002675Y006736D01*
X002675Y006811D02*
X002675Y006585D01*
X002825Y006585D02*
X002375Y006585D01*
X002375Y006811D01*
X002450Y006886D01*
X002600Y006886D01*
X002675Y006811D01*
X002375Y006425D02*
X002375Y006125D01*
X002825Y006125D01*
X002600Y006125D02*
X002600Y006275D01*
X002825Y007506D02*
X002375Y007506D01*
X002525Y007656D01*
X002375Y007806D01*
X002825Y007806D01*
X002900Y007967D02*
X002900Y008267D01*
X002825Y008427D02*
X002825Y008652D01*
X002750Y008727D01*
X002675Y008727D01*
X002600Y008652D01*
X002600Y008427D01*
X002825Y008427D02*
X002375Y008427D01*
X002375Y008652D01*
X002450Y008727D01*
X002525Y008727D01*
X002600Y008652D01*
X002600Y008887D02*
X002600Y009113D01*
X002675Y009188D01*
X002750Y009188D01*
X002825Y009113D01*
X002825Y008887D01*
X002375Y008887D01*
X002375Y009113D01*
X002450Y009188D01*
X002525Y009188D01*
X002600Y009113D01*
X002600Y009348D02*
X002600Y009573D01*
X002675Y009648D01*
X002750Y009648D01*
X002825Y009573D01*
X002825Y009348D01*
X002375Y009348D01*
X002375Y009573D01*
X002450Y009648D01*
X002525Y009648D01*
X002600Y009573D01*
X005591Y015875D02*
X005741Y015875D01*
X005816Y015950D01*
X005816Y016250D01*
X005741Y016325D01*
X005591Y016325D01*
X005516Y016250D01*
X005516Y015950D01*
X005591Y015875D01*
X005976Y015875D02*
X005976Y016325D01*
X006202Y016325D01*
X006277Y016250D01*
X006277Y016100D01*
X006202Y016025D01*
X005976Y016025D01*
X006437Y016325D02*
X006737Y016325D01*
X006587Y016325D02*
X006587Y015875D01*
X006897Y015875D02*
X007047Y015875D01*
X006972Y015875D02*
X006972Y016325D01*
X006897Y016325D02*
X007047Y016325D01*
X007204Y016250D02*
X007204Y015950D01*
X007279Y015875D01*
X007429Y015875D01*
X007504Y015950D01*
X007504Y016250D01*
X007429Y016325D01*
X007279Y016325D01*
X007204Y016250D01*
X007665Y016325D02*
X007665Y015875D01*
X007965Y015875D02*
X007965Y016325D01*
X007665Y016325D02*
X007965Y015875D01*
X009875Y013815D02*
X010025Y013665D01*
X009875Y013815D02*
X010325Y013815D01*
X010325Y013665D02*
X010325Y013965D01*
X010400Y013504D02*
X010400Y013204D01*
X010250Y013044D02*
X010325Y012969D01*
X010325Y012819D01*
X010250Y012744D01*
X010250Y012584D02*
X010325Y012509D01*
X010325Y012358D01*
X010250Y012283D01*
X010100Y012358D02*
X010100Y012509D01*
X010175Y012584D01*
X010250Y012584D01*
X010100Y012358D02*
X010025Y012283D01*
X009950Y012283D01*
X009875Y012358D01*
X009875Y012509D01*
X009950Y012584D01*
X009950Y012744D02*
X010025Y012744D01*
X010100Y012819D01*
X010100Y012969D01*
X010175Y013044D01*
X010250Y013044D01*
X009950Y013044D02*
X009875Y012969D01*
X009875Y012819D01*
X009950Y012744D01*
X010675Y016225D02*
X010675Y016675D01*
X010900Y016675D01*
X010975Y016600D01*
X010975Y016450D01*
X010900Y016375D01*
X010675Y016375D01*
X011135Y016225D02*
X011286Y016225D01*
X011210Y016225D02*
X011210Y016675D01*
X011135Y016675D02*
X011286Y016675D01*
X011442Y016600D02*
X011442Y016300D01*
X011517Y016225D01*
X011668Y016225D01*
X011743Y016300D01*
X011903Y016225D02*
X012203Y016225D01*
X012053Y016225D02*
X012053Y016675D01*
X011903Y016525D01*
X011743Y016600D02*
X011668Y016675D01*
X011517Y016675D01*
X011442Y016600D01*
X012363Y016450D02*
X012363Y016300D01*
X012438Y016225D01*
X012588Y016225D01*
X012663Y016300D01*
X012663Y016375D01*
X012588Y016450D01*
X012363Y016450D01*
X012513Y016600D01*
X012663Y016675D01*
X012823Y016675D02*
X013124Y016675D01*
X013284Y016600D02*
X013284Y016525D01*
X013359Y016450D01*
X013509Y016450D01*
X013584Y016375D01*
X013584Y016300D01*
X013509Y016225D01*
X013359Y016225D01*
X013284Y016300D01*
X013284Y016375D01*
X013359Y016450D01*
X013509Y016450D02*
X013584Y016525D01*
X013584Y016600D01*
X013509Y016675D01*
X013359Y016675D01*
X013284Y016600D01*
X012974Y016450D02*
X012823Y016450D01*
X012823Y016225D02*
X012823Y016675D01*
X013744Y016600D02*
X013744Y016525D01*
X013819Y016450D01*
X013969Y016450D01*
X014045Y016375D01*
X014045Y016300D01*
X013969Y016225D01*
X013819Y016225D01*
X013744Y016300D01*
X013744Y016375D01*
X013819Y016450D01*
X013969Y016450D02*
X014045Y016525D01*
X014045Y016600D01*
X013969Y016675D01*
X013819Y016675D01*
X013744Y016600D01*
X018275Y013815D02*
X018725Y013815D01*
X018725Y013665D02*
X018725Y013965D01*
X018425Y013665D02*
X018275Y013815D01*
X018275Y013504D02*
X018275Y013204D01*
X018725Y013204D01*
X018725Y013044D02*
X018575Y012894D01*
X018650Y013044D02*
X018725Y012969D01*
X018725Y012819D01*
X018650Y012744D01*
X018350Y012744D01*
X018275Y012819D01*
X018275Y012969D01*
X018350Y013044D01*
X018650Y013044D01*
X018500Y013204D02*
X018500Y013354D01*
X010465Y003325D02*
X010165Y003325D01*
X010165Y002875D01*
X010465Y002875D01*
X010315Y003100D02*
X010165Y003100D01*
X010004Y002950D02*
X009929Y002875D01*
X009779Y002875D01*
X009704Y002950D01*
X009704Y003250D01*
X009779Y003325D01*
X009929Y003325D01*
X010004Y003250D01*
X009544Y003175D02*
X009544Y002875D01*
X009544Y003100D02*
X009244Y003100D01*
X009244Y003175D02*
X009394Y003325D01*
X009544Y003175D01*
X009244Y003175D02*
X009244Y002875D01*
X009084Y002875D02*
X008934Y003025D01*
X009009Y003025D02*
X008783Y003025D01*
X008783Y002875D02*
X008783Y003325D01*
X009009Y003325D01*
X009084Y003250D01*
X009084Y003100D01*
X009009Y003025D01*
X008623Y003325D02*
X008323Y003325D01*
X008473Y003325D02*
X008473Y002875D01*
X008163Y002875D02*
X007863Y002875D01*
X007863Y003325D01*
X008163Y003325D01*
X008013Y003100D02*
X007863Y003100D01*
X007702Y002875D02*
X007702Y003325D01*
X007402Y003325D02*
X007402Y002875D01*
X007245Y002875D02*
X007095Y002875D01*
X007170Y002875D02*
X007170Y003325D01*
X007095Y003325D02*
X007245Y003325D01*
X007402Y003325D02*
X007702Y002875D01*
X006935Y002875D02*
X006635Y002875D01*
X006635Y003325D01*
X006475Y002800D02*
X006175Y002800D01*
X005864Y002875D02*
X005864Y003325D01*
X005714Y003325D02*
X006014Y003325D01*
X005554Y003325D02*
X005554Y002950D01*
X005479Y002875D01*
X005329Y002875D01*
X005254Y002950D01*
X005254Y003325D01*
X005094Y003250D02*
X005019Y003325D01*
X004868Y003325D01*
X004793Y003250D01*
X004793Y002950D01*
X004868Y002875D01*
X005019Y002875D01*
X005094Y002950D01*
X005094Y003250D01*
D13*
X016200Y010950D02*
X016200Y013250D01*
X016202Y013309D01*
X016208Y013367D01*
X016217Y013426D01*
X016231Y013483D01*
X016248Y013539D01*
X016269Y013594D01*
X016293Y013648D01*
X016321Y013700D01*
X016352Y013750D01*
X016386Y013798D01*
X016423Y013843D01*
X016464Y013886D01*
X016507Y013927D01*
X016552Y013964D01*
X016600Y013998D01*
X016650Y014029D01*
X016702Y014057D01*
X016756Y014081D01*
X016811Y014102D01*
X016867Y014119D01*
X016924Y014133D01*
X016983Y014142D01*
X017041Y014148D01*
X017100Y014150D01*
X017159Y014148D01*
X017217Y014142D01*
X017276Y014133D01*
X017333Y014119D01*
X017389Y014102D01*
X017444Y014081D01*
X017498Y014057D01*
X017550Y014029D01*
X017600Y013998D01*
X017648Y013964D01*
X017693Y013927D01*
X017736Y013886D01*
X017777Y013843D01*
X017814Y013798D01*
X017848Y013750D01*
X017879Y013700D01*
X017907Y013648D01*
X017931Y013594D01*
X017952Y013539D01*
X017969Y013483D01*
X017983Y013426D01*
X017992Y013367D01*
X017998Y013309D01*
X018000Y013250D01*
X018000Y010950D01*
X017998Y010891D01*
X017992Y010833D01*
X017983Y010774D01*
X017969Y010717D01*
X017952Y010661D01*
X017931Y010606D01*
X017907Y010552D01*
X017879Y010500D01*
X017848Y010450D01*
X017814Y010402D01*
X017777Y010357D01*
X017736Y010314D01*
X017693Y010273D01*
X017648Y010236D01*
X017600Y010202D01*
X017550Y010171D01*
X017498Y010143D01*
X017444Y010119D01*
X017389Y010098D01*
X017333Y010081D01*
X017276Y010067D01*
X017217Y010058D01*
X017159Y010052D01*
X017100Y010050D01*
X017041Y010052D01*
X016983Y010058D01*
X016924Y010067D01*
X016867Y010081D01*
X016811Y010098D01*
X016756Y010119D01*
X016702Y010143D01*
X016650Y010171D01*
X016600Y010202D01*
X016552Y010236D01*
X016507Y010273D01*
X016464Y010314D01*
X016423Y010357D01*
X016386Y010402D01*
X016352Y010450D01*
X016321Y010500D01*
X016293Y010552D01*
X016269Y010606D01*
X016248Y010661D01*
X016231Y010717D01*
X016217Y010774D01*
X016208Y010833D01*
X016202Y010891D01*
X016200Y010950D01*
M02*
